<svg width="801" height="802" viewBox="0 0 801 802" fill="none" xmlns="http://www.w3.org/2000/svg">
<path d="M81 1H1V81M81 1V81M81 1H161M81 81H1M81 81H161M81 81V161M1 81V161M161 1V81M161 1H241M161 81H241M161 81V161M241 1V81M241 1H321M241 81H321M241 81V161M321 1V81M321 1H401M321 81H401M321 81V161M401 1V81M401 1H481M401 81H481M401 81V161M481 1V81M481 1H561M481 81H561M481 81V161M561 1V81M561 1H641M561 81H641M561 81V161M641 1V81M641 1H721M641 81H721M641 81V161M721 1V81M721 1H801V81M721 81H801M721 81V161M801 81V161M81 161H1M81 161H161M81 161V241M1 161V241M161 161H241M161 161V241M241 161H321M241 161V241M321 161H401M321 161V241M401 161H481M401 161V241M481 161H561M481 161V241M561 161H641M561 161V241M641 161H721M641 161V241M721 161H801M721 161V241M801 161V241M81 241H1M81 241H161M81 241V321M1 241V321M161 241H241M161 241V321M241 241H321M241 241V321M321 241H401M321 241V321M401 241H481M401 241V321M481 241H561M481 241V321M561 241H641M561 241V321M641 241H721M641 241V321M721 241H801M721 241V321M801 241V321M81 321H1M81 321H161M81 321V401M1 321V401M161 321H241M161 321V401M241 321H321M241 321V401M321 321H401M321 321V401M401 321H481M401 321V401M481 321H561M481 321V401M561 321H641M561 321V401M641 321H721M641 321V401M721 321H801M721 321V401M801 321V401M81 401H1M81 401H161M81 401V481M1 401V481M161 401H241M161 401V481M241 401H321M241 401V481M321 401H401M321 401V481M401 401H481M401 401V481M481 401H561M481 401V481M561 401H641M561 401V481M641 401H721M641 401V481M721 401H801M721 401V481M801 401V481M81 481H1M81 481H161M81 481V561M1 481V561M161 481H241M161 481V561M241 481H321M241 481V561M321 481H401M321 481V561M401 481H481M401 481V561M481 481H561M481 481V561M561 481H641M561 481V561M641 481H721M641 481V561M721 481H801M721 481V561M801 481V561M81 561H1M81 561H161M81 561V641M1 561V641M161 561H241M161 561V641M241 561H321M241 561V641M321 561H401M321 561V641M401 561H481M401 561V641M481 561H561M481 561V641M561 561H641M561 561V641M641 561H721M641 561V641M721 561H801M721 561V641M801 561V641M81 641H1M81 641H161M81 641V721M1 641V721M161 641H241M161 641V721M241 641H321M241 641V721M321 641H401M321 641V721M401 641H481M401 641V721M481 641H561M481 641V721M561 641H641M561 641V721M641 641H721M641 641V721M721 641H801M721 641V721M801 641V721M81 721H1M81 721H161M81 721V801M1 721V801H81M161 721H241M161 721V801M241 721H321M241 721V801M321 721H401M321 721V801M401 721H481M401 721V801M481 721H561M481 721V801M561 721H641M561 721V801M641 721H721M641 721V801M721 721H801M721 721V801M801 721V801H721M81 801H161M161 801H241M241 801H321M321 801H401M401 801H481M481 801H561M561 801H641M641 801H721" stroke="url(#paint0_radial_116_1317)"/>
<defs>
<radialGradient id="paint0_radial_116_1317" cx="0" cy="0" r="1" gradientUnits="userSpaceOnUse" gradientTransform="translate(401 391) rotate(90) scale(410)">
<stop stop-color="#9E9E9E"/>
<stop offset="1" stop-color="#9E9E9E" stop-opacity="0"/>
</radialGradient>
</defs>
</svg>
